<mxfile host="app.diagrams.net" modified="2024-04-17T10:22:39.615Z" agent="Mozilla/5.0 (Windows NT 10.0; Win64; x64) AppleWebKit/537.36 (KHTML, like Gecko) Chrome/123.0.0.0 Safari/537.36" version="23.1.6" etag="eWiwwKukd4PZ-_466jRr" type="github">
  <diagram name="Page-1" id="TWUT_cXDczsdI17VHEGH">
    <mxGraphModel>
      <root>
        <mxCell id="0" />
        <mxCell id="1" parent="0" />
      </root>
    </mxGraphModel>
  </diagram>
</mxfile>
